<svg width="22" height="22" viewBox="0 0 22 22" fill="none" xmlns="http://www.w3.org/2000/svg">
<g id="bi:laptop-fill">
<g id="Group">
<path id="Vector" d="M3.4375 2.75C2.89049 2.75 2.36589 2.9673 1.97909 3.35409C1.5923 3.74089 1.375 4.26549 1.375 4.8125V16.5H20.625V4.8125C20.625 4.26549 20.4077 3.74089 20.0209 3.35409C19.6341 2.9673 19.1095 2.75 18.5625 2.75H3.4375ZM0 17.1875H22C22 17.7345 21.7827 18.2591 21.3959 18.6459C21.0091 19.0327 20.4845 19.25 19.9375 19.25H2.0625C1.51549 19.25 0.990886 19.0327 0.604092 18.6459C0.217298 18.2591 0 17.7345 0 17.1875H0Z" fill="white"/>
</g>
</g>
</svg>
