<svg width="29" height="29" viewBox="0 0 29 29" fill="none" xmlns="http://www.w3.org/2000/svg">
<g id="Calendar">
<g id="Iconly/Bold/Calendar">
<g id="Calendar_2">
<path id="Vector" d="M18.91 2.41651C19.423 2.4153 19.8286 2.81385 19.8298 3.34525L19.831 4.25105C23.1595 4.51192 25.3583 6.78003 25.3619 10.2583L25.375 20.4394C25.3798 24.2317 22.9973 26.565 19.1784 26.5711L9.8502 26.5832C6.0552 26.588 3.64291 24.1991 3.63814 20.396L3.62501 10.3344C3.62024 6.83317 5.74144 4.5711 9.06997 4.26554L9.06877 3.35975C9.06758 2.82834 9.46128 2.42859 9.98621 2.42859C10.5111 2.42738 10.9048 2.82593 10.906 3.35733L10.9072 4.20274L17.9938 4.19308L17.9926 3.34767C17.9914 2.81627 18.3851 2.41772 18.91 2.41651ZM19.3968 19.565H19.3848C18.836 19.5783 18.3958 20.0385 18.4077 20.594C18.4089 21.1496 18.8515 21.6073 19.4003 21.6194C19.9599 21.6182 20.4132 21.158 20.412 20.5904C20.412 20.0228 19.9575 19.565 19.3968 19.565ZM9.56626 19.5663C9.01747 19.5904 8.58798 20.0506 8.58917 20.6061C8.61423 21.1617 9.06758 21.5964 9.61637 21.5711C10.1544 21.5469 10.5827 21.0868 10.5577 20.5312C10.5457 19.9878 10.1031 19.565 9.56626 19.5663ZM14.4815 19.5602C13.9327 19.5856 13.5044 20.0445 13.5044 20.6001C13.5295 21.1556 13.9828 21.5892 14.5316 21.565C15.0685 21.5397 15.498 21.0807 15.4729 20.524C15.461 19.9817 15.0184 19.559 14.4815 19.5602ZM9.5603 15.2184C9.01151 15.2426 8.58321 15.7027 8.5844 16.2583C8.60827 16.8138 9.06281 17.2486 9.6116 17.2233C10.1485 17.1991 10.5768 16.739 10.5517 16.1834C10.5398 15.6399 10.0983 15.2172 9.5603 15.2184ZM14.4767 15.1762C13.9279 15.2003 13.4985 15.6605 13.4997 16.216C13.5235 16.7716 13.9781 17.2051 14.5268 17.181C15.0637 17.1556 15.492 16.6967 15.4681 16.1411C15.455 15.5977 15.0136 15.175 14.4767 15.1762ZM19.392 15.1822C18.8432 15.1943 18.4137 15.6411 18.4149 16.1967V16.21C18.4268 16.7655 18.8802 17.187 19.4302 17.175C19.967 17.1617 20.3953 16.7015 20.3834 16.146C20.3583 15.6146 19.9277 15.181 19.392 15.1822ZM17.9962 6.05298L10.9096 6.06264L10.9108 7.03969C10.9108 7.56023 10.5183 7.97085 9.99336 7.97085C9.46843 7.97206 9.07354 7.56264 9.07354 7.04211L9.07235 6.11216C6.74596 6.34525 5.45869 7.7124 5.46226 10.332L5.46346 10.7076L23.5258 10.6834V10.2607C23.4745 7.66409 22.1717 6.30177 19.8334 6.09887L19.8346 7.02882C19.8346 7.54815 19.4302 7.95998 18.9172 7.95998C18.3922 7.96119 17.9973 7.55056 17.9973 7.03124L17.9962 6.05298Z" fill="white"/>
</g>
</g>
</g>
</svg>
