<svg width="23" height="23" viewBox="0 0 23 23" fill="none" xmlns="http://www.w3.org/2000/svg">
<g id="Play">
<g id="Iconly/Bold/Play">
<g id="Play_2">
<path id="Vector" d="M11.2117 2.16602C16.3613 2.16602 20.5548 6.35756 20.5548 11.5145C20.5548 16.6607 16.3613 20.8522 11.2117 20.8522C6.06222 20.8522 1.86865 16.6607 1.86865 11.5145C1.86865 6.35756 6.06222 2.16602 11.2117 2.16602ZM10.1476 7.79982C9.94917 7.79982 9.75978 7.84489 9.57941 7.93503C9.35395 8.06122 9.17358 8.25953 9.07438 8.4939C9.01125 8.65615 8.91205 9.14291 8.91205 9.15193C8.81284 9.68376 8.75873 10.5491 8.75873 11.5046C8.75873 12.4159 8.81284 13.2443 8.89401 13.7852C8.90303 13.7942 9.00223 14.3981 9.11045 14.6054C9.30886 14.984 9.69665 15.2184 10.1115 15.2184H10.1476C10.4181 15.2094 10.9863 14.975 10.9863 14.966C11.9422 14.5694 13.8271 13.3345 14.5846 12.5142L14.6387 12.4601C14.738 12.3609 14.8642 12.2077 14.8913 12.1716C15.0356 11.9823 15.1077 11.748 15.1077 11.5145C15.1077 11.2522 15.0265 11.0088 14.8732 10.8105C14.8372 10.7745 14.7019 10.6212 14.5756 10.495C13.8361 9.70179 11.9062 8.40376 10.8961 8.00714C10.7428 7.94494 10.355 7.80883 10.1476 7.79982Z" fill="black"/>
</g>
</g>
</g>
</svg>
