<svg width="52" height="52" viewBox="0 0 52 52" fill="none" xmlns="http://www.w3.org/2000/svg">
<g id="Tick Square">
<g id="Iconly/Bold/Tick-Square">
<g id="Tick-Square">
<path id="Vector" d="M35.4035 4.33301C42.7485 4.33301 47.6668 9.48968 47.6668 17.1597V34.8635C47.6668 42.5097 42.7485 47.6663 35.4035 47.6663H16.6185C9.2735 47.6663 4.3335 42.5097 4.3335 34.8635V17.1597C4.3335 9.48968 9.2735 4.33301 16.6185 4.33301H35.4035ZM35.0568 19.4997C34.3202 18.763 33.1068 18.763 32.3702 19.4997L23.4218 28.448L19.6302 24.6563C18.8935 23.9197 17.6802 23.9197 16.9435 24.6563C16.2068 25.393 16.2068 26.5847 16.9435 27.343L22.1002 32.478C22.4685 32.8463 22.9452 33.0197 23.4218 33.0197C23.9202 33.0197 24.3968 32.8463 24.7652 32.478L35.0568 22.1863C35.7935 21.4497 35.7935 20.258 35.0568 19.4997Z" fill="#058E6E"/>
</g>
</g>
</g>
</svg>
