<svg width="75" height="45" viewBox="0 0 75 45" fill="none" xmlns="http://www.w3.org/2000/svg">
<g id="Frame 19">
<path id="Vector" d="M64.4884 41.5558V22.6129C64.4884 22.6129 49.8756 24.4762 37.2938 30.7152C24.7121 24.4762 10.0992 22.6129 10.0992 22.6129V41.5558C5.81129 42.5157 2.34144 43.6732 0 45C7.89884 42.5157 21.6372 40.8501 37.2656 40.8501C52.894 40.8501 66.6324 42.4875 74.5312 45C72.218 43.6732 68.7764 42.5157 64.4884 41.5558Z" fill="#1C1D4E"/>
<path id="Vector_2" d="M14.0768 20.5803V23.2622C19.2675 24.2503 28.7461 26.4523 37.2938 30.7151C27.1946 22.7823 14.0768 20.5803 14.0768 20.5803Z" fill="#313273"/>
<path id="Vector_3" d="M60.539 20.5803C60.539 20.5803 47.4213 22.7823 37.3221 30.7151C45.8697 26.4805 55.3483 24.2503 60.539 23.2622V20.5803Z" fill="#313273"/>
<g id="Group">
<path id="Vector_4" d="M37.3221 20.8344C36.7861 22.0201 35.968 23.0646 35.0088 23.8833L37.2938 27.8639L39.6353 23.8833C38.6479 23.0646 37.858 22.0201 37.3221 20.8344Z" fill="#313274"/>
<path id="Vector_5" d="M30.3824 17.8701C31.9057 17.8701 33.1752 16.628 33.1752 15.0753C33.1752 13.5508 31.9339 12.2804 30.3824 12.2804C28.859 12.2804 27.5896 13.5226 27.5896 15.0753C27.5896 16.628 28.8308 17.8701 30.3824 17.8701ZM29.4514 13.1274C30.0438 13.1274 30.5234 13.6073 30.5234 14.2001C30.5234 14.793 30.0438 15.2729 29.4514 15.2729C28.859 15.2729 28.3794 14.793 28.3794 14.2001C28.3794 13.6073 28.859 13.1274 29.4514 13.1274Z" fill="#313274"/>
<path id="Vector_6" d="M41.4408 15.0753C41.4408 16.5997 42.682 17.8701 44.2053 17.8701C45.7287 17.8701 46.9981 16.628 46.9981 15.0753C46.9981 13.5508 45.7569 12.2804 44.2053 12.2804C42.7102 12.3087 41.4408 13.5508 41.4408 15.0753ZM44.5439 14.2001C44.5439 14.793 44.0643 15.2729 43.4719 15.2729C42.8795 15.2729 42.3999 14.793 42.3999 14.2001C42.3999 13.6073 42.8795 13.1274 43.4719 13.1274C44.0643 13.1274 44.5439 13.6073 44.5439 14.2001Z" fill="#313274"/>
<path id="Vector_7" d="M25.0506 20.5521C26.4329 21.9071 28.323 22.7258 30.3824 22.7258C33.4291 22.7258 36.0808 20.9191 37.3221 18.3218C38.5351 20.9191 41.1869 22.7258 44.2618 22.7258C46.3493 22.7258 48.2112 21.8789 49.5935 20.5521C50.1859 21.399 50.6937 22.3024 51.1168 23.234C52.8377 22.5847 54.4174 22.1048 55.7997 21.7095C54.897 19.8463 53.4865 18.1807 51.7092 16.7691C51.8221 16.2327 51.9067 15.6399 51.9067 15.0753C51.9067 13.946 51.6528 12.8733 51.2015 11.8852C50.6655 10.3043 49.8474 8.83626 48.8036 7.53764L48.7472 0L42.4845 2.93601C40.8483 2.31493 39.0993 2.00439 37.3221 2.00439C35.5448 2.00439 33.7958 2.31493 32.1596 2.93601L25.8687 0L25.8123 7.53764C24.7967 8.83626 23.9787 10.276 23.4427 11.8287C22.9913 12.8168 22.7092 13.9178 22.7092 15.0753C22.7092 15.6681 22.7656 16.2327 22.9067 16.7691C21.1294 18.1807 19.7471 19.8463 18.8444 21.7095C20.1985 22.1048 21.8065 22.6129 23.5273 23.234C23.9504 22.3024 24.4582 21.399 25.0506 20.5521ZM50.2705 15.0753C50.2705 18.4065 47.5624 21.1167 44.2336 21.1167C40.9048 21.1167 38.1966 18.4065 38.1966 15.0753C38.1966 11.744 40.9048 9.03387 44.2336 9.03387C47.5624 9.0621 50.2705 11.7723 50.2705 15.0753ZM37.2939 3.61355C41.1304 3.61355 44.6285 5.27917 47.0264 7.9611C46.1518 7.62233 45.1927 7.42472 44.2053 7.42472C41.1586 7.42472 38.5069 9.23149 37.2656 11.8287C36.0526 9.23149 33.4008 7.42472 30.3259 7.42472C29.3386 7.42472 28.3794 7.62233 27.5331 7.9611C29.9874 5.27917 33.4573 3.61355 37.2939 3.61355ZM30.3824 9.06211C33.7112 9.06211 36.4193 11.7723 36.4193 15.1035C36.4193 18.4347 33.7112 21.1449 30.3824 21.1449C27.0536 21.1449 24.3454 18.4347 24.3454 15.1035C24.3454 11.7723 27.0536 9.06211 30.3824 9.06211Z" fill="#313274"/>
</g>
</g>
</svg>
